<svg width="8" height="12" viewBox="0 0 8 12" fill="none" xmlns="http://www.w3.org/2000/svg">
<path fill-rule="evenodd" clip-rule="evenodd" d="M0.961479 0.251763C1.04108 0.171957 1.13565 0.10864 1.23976 0.0654386C1.34387 0.0222369 1.45549 0 1.5682 0C1.68092 0 1.79254 0.0222369 1.89665 0.0654386C2.00076 0.10864 2.09533 0.171957 2.17493 0.251763L7.31667 5.3935C7.39647 5.4731 7.45979 5.56767 7.50299 5.67178C7.54619 5.77589 7.56843 5.88751 7.56843 6.00022C7.56843 6.11294 7.54619 6.22456 7.50299 6.32867C7.45979 6.43278 7.39647 6.52735 7.31667 6.60695L2.17493 11.7487C2.01402 11.9096 1.79577 12 1.5682 12C1.34064 12 1.12239 11.9096 0.961479 11.7487C0.800566 11.5878 0.710166 11.3695 0.710166 11.142C0.710166 10.9144 0.800566 10.6961 0.961479 10.5352L5.49821 6.00022L0.961479 1.46521C0.881674 1.38561 0.818358 1.29104 0.775156 1.18693C0.731955 1.08282 0.709717 0.971207 0.709717 0.858488C0.709717 0.745768 0.731955 0.634156 0.775156 0.530044C0.818358 0.425932 0.881674 0.331366 0.961479 0.251763Z" fill="#226ED8"/>
</svg>
