<svg width="25" height="25" viewBox="0 0 25 25" fill="none" xmlns="http://www.w3.org/2000/svg">
<path d="M24 0H1C0.446875 0 0 0.446875 0 1V24C0 24.5531 0.446875 25 1 25H24C24.5531 25 25 24.5531 25 24V1C25 0.446875 24.5531 0 24 0ZM12.5344 12.6906L6.53438 17.7219C6.37188 17.8594 6.125 17.7437 6.125 17.5312V15.5719C6.125 15.5 6.15937 15.4281 6.21562 15.3813L9.64688 12.5L6.21562 9.61875C6.1869 9.59606 6.16379 9.56707 6.14807 9.53401C6.13235 9.50095 6.12446 9.46472 6.125 9.42813V7.46875C6.125 7.25625 6.37188 7.14062 6.53438 7.27812L12.5344 12.3062C12.6562 12.4062 12.6562 12.5906 12.5344 12.6906ZM18.875 17.5312C18.875 17.6688 18.7687 17.7812 18.6406 17.7812H12.8594C12.7312 17.7812 12.625 17.6688 12.625 17.5312V16.0312C12.625 15.8938 12.7312 15.7812 12.8594 15.7812H18.6406C18.7687 15.7812 18.875 15.8938 18.875 16.0312V17.5312Z" fill="#226ED8"/>
</svg>
