<svg width="26" height="25" viewBox="0 0 26 25" fill="none" xmlns="http://www.w3.org/2000/svg">
<path d="M24.8971 23.7048L21.2084 20.0387V5.93517L19.4663 2.7312C19.3378 2.48692 19.1449 2.2824 18.9087 2.13972C18.6724 1.99704 18.4016 1.92163 18.1256 1.92163C17.8496 1.92163 17.5788 1.99704 17.3425 2.13972C17.1062 2.2824 16.9134 2.48692 16.7849 2.7312L15.1489 5.94275V14.0095L1.29524 0.224063C1.18929 0.117242 1.05394 0.0443906 0.906429 0.0147976C0.758919 -0.0147954 0.605938 0.000210656 0.46699 0.0579026C0.328042 0.115594 0.209422 0.213358 0.126254 0.33873C0.043086 0.464101 -0.000862104 0.6114 1.28136e-05 0.761847V6.88198H1.64366V8.09388H1.28136e-05V12.9415H1.64366V14.1534H1.28136e-05V19.1904H1.64366V20.4023H1.28136e-05V24.2425C1.28136e-05 24.4434 0.0798145 24.6361 0.221862 24.7781C0.36391 24.9202 0.556569 25 0.757455 25H24.3593C24.5098 25.0009 24.6571 24.9569 24.7825 24.8737C24.9078 24.7906 25.0056 24.672 25.0633 24.533C25.121 24.3941 25.136 24.2411 25.1064 24.0936C25.0768 23.9461 25.0039 23.8107 24.8971 23.7048ZM6.05955 19.001V12.1386L12.9295 19.001H6.05955ZM19.6935 20.5993H16.6637V18.7587H19.6935V20.5993ZM19.6935 17.5695H16.6637V6.3139L18.1332 3.45834L19.6935 6.32147V17.5695Z" fill="#226ED8"/>
</svg>
