<svg width="20" height="20" viewBox="0 0 20 20" fill="none" xmlns="http://www.w3.org/2000/svg">
<path d="M16.7812 12.875C18.2137 12.875 19.375 11.7277 19.375 10.3125C19.375 8.89727 18.2137 7.75 16.7812 7.75C15.3488 7.75 14.1875 8.89727 14.1875 10.3125C14.1875 11.7277 15.3488 12.875 16.7812 12.875Z" fill="#89664C"/>
<path d="M16.7813 12C17.7132 12 18.4688 11.2445 18.4688 10.3125C18.4688 9.38052 17.7132 8.625 16.7813 8.625C15.8493 8.625 15.0938 9.38052 15.0938 10.3125C15.0938 11.2445 15.8493 12 16.7813 12Z" fill="#FFC5D3"/>
<path d="M3.1875 12.875C4.60273 12.875 5.75 11.7277 5.75 10.3125C5.75 8.89727 4.60273 7.75 3.1875 7.75C1.77227 7.75 0.625 8.89727 0.625 10.3125C0.625 11.7277 1.77227 12.875 3.1875 12.875Z" fill="#89664C"/>
<path d="M3.1875 12C4.11948 12 4.875 11.2445 4.875 10.3125C4.875 9.38052 4.11948 8.625 3.1875 8.625C2.25552 8.625 1.5 9.38052 1.5 10.3125C1.5 11.2445 2.25552 12 3.1875 12Z" fill="#FFC5D3"/>
<path d="M13.5625 3.37494C13.9063 3.18744 14.1562 3.09369 14.1562 3.09369C13.1562 2.74994 12.2812 2.5312 11.5 2.43745C11.9062 2.12495 12.1563 2.0312 12.1563 2.0312C5.78125 1.12495 2.75 4.84369 2.75 8.12494H17.25C17.0313 5.81244 15.75 4.24994 13.5625 3.37494Z" fill="#89664C"/>
<path d="M17.2812 8.625C17.2812 5.59375 14.0312 3.125 10 3.125C5.96875 3.125 2.71875 5.59375 2.71875 8.625C2.71875 9.34375 2.90625 10 3.21875 10.625C2.90625 11.25 2.71875 11.9375 2.71875 12.625C2.71875 15.6562 5.96875 18.125 10 18.125C14.0312 18.125 17.2812 15.6562 17.2812 12.625C17.2812 11.9063 17.0938 11.25 16.7812 10.625C17.0938 10 17.2812 9.3125 17.2812 8.625Z" fill="#89664C"/>
<path d="M16.25 8.81257C16.25 3.53133 10 6.90632 10 6.90632C10 6.90632 3.75 3.53133 3.75 8.81257C3.75 10.2813 4.65625 11.6251 6.09375 12.4688C5.6875 13.0001 5.4375 13.5938 5.4375 14.2501C5.4375 16.1563 7.5 17.6876 10.0312 17.6876C12.5625 17.6876 14.625 16.1563 14.625 14.2501C14.625 13.5938 14.375 13.0001 13.9688 12.4688C15.3438 11.6251 16.25 10.2813 16.25 8.81257Z" fill="#E0AC7E"/>
<path d="M10.9688 12.0938C10.9688 12.4375 10.8438 12.75 10.6562 12.75C10.4687 12.75 10.3438 12.4688 10.3438 12.0938C10.3438 11.75 10.4687 11.4375 10.6562 11.4375C10.8438 11.4687 10.9688 11.75 10.9688 12.0938Z" fill="#3B302A"/>
<path d="M9.65625 12.0938C9.65625 12.4375 9.53125 12.75 9.34375 12.75C9.15625 12.75 9.03125 12.4688 9.03125 12.0938C9.03125 11.75 9.15625 11.4375 9.34375 11.4375C9.5 11.4687 9.65625 11.75 9.65625 12.0938Z" fill="#3B302A"/>
<path d="M12.7188 11.3125C13.3228 11.3125 13.8125 10.6829 13.8125 9.90625C13.8125 9.1296 13.3228 8.5 12.7188 8.5C12.1147 8.5 11.625 9.1296 11.625 9.90625C11.625 10.6829 12.1147 11.3125 12.7188 11.3125Z" fill="#3B302A"/>
<path d="M7.28125 11.3125C7.88531 11.3125 8.375 10.6829 8.375 9.90625C8.375 9.1296 7.88531 8.5 7.28125 8.5C6.67719 8.5 6.1875 9.1296 6.1875 9.90625C6.1875 10.6829 6.67719 11.3125 7.28125 11.3125Z" fill="#3B302A"/>
<path d="M13.0625 13.9063C13.5 14.2813 12.1563 16.0625 10 16.0938C7.84377 16.0938 6.46877 14.2813 6.93752 13.9063C7.06252 13.8125 8.56252 14.1875 10 14.1875C11.4688 14.1875 12.9688 13.8125 13.0625 13.9063Z" fill="#3B302A"/>
</svg>
