<svg width="40" height="46" viewBox="0 0 40 46" fill="none" xmlns="http://www.w3.org/2000/svg">
<g filter="url(#filter0_d)">
<path d="M26.5 20L12.218 5.15999C11.9607 4.89913 11.8164 4.54743 11.8164 4.18099C11.8164 3.81455 11.9607 3.46285 12.218 3.20199C12.3446 3.07349 12.4954 2.97144 12.6618 2.90179C12.8281 2.83214 13.0067 2.79626 13.187 2.79626C13.3674 2.79626 13.5459 2.83214 13.7123 2.90179C13.8787 2.97144 14.0295 3.07349 14.156 3.20199L29.816 19.018C30.0734 19.2789 30.2177 19.6306 30.2177 19.997C30.2177 20.3634 30.0734 20.7151 29.816 20.976L14.156 36.792C14.0295 36.9205 13.8787 37.0225 13.7123 37.0922C13.5459 37.1618 13.3674 37.1977 13.187 37.1977C13.0067 37.1977 12.8281 37.1618 12.6618 37.0922C12.4954 37.0225 12.3446 36.9205 12.218 36.792C11.9607 36.5311 11.8164 36.1794 11.8164 35.813C11.8164 35.4466 11.9607 35.0949 12.218 34.834L26.5 20Z" fill="white"/>
</g>
<defs>
<filter id="filter0_d" x="-4" y="0" width="48" height="48" filterUnits="userSpaceOnUse" color-interpolation-filters="sRGB">
<feFlood flood-opacity="0" result="BackgroundImageFix"/>
<feColorMatrix in="SourceAlpha" type="matrix" values="0 0 0 0 0 0 0 0 0 0 0 0 0 0 0 0 0 0 127 0"/>
<feOffset dy="4"/>
<feGaussianBlur stdDeviation="2"/>
<feColorMatrix type="matrix" values="0 0 0 0 0 0 0 0 0 0 0 0 0 0 0 0 0 0 0.25 0"/>
<feBlend mode="normal" in2="BackgroundImageFix" result="effect1_dropShadow"/>
<feBlend mode="normal" in="SourceGraphic" in2="effect1_dropShadow" result="shape"/>
</filter>
</defs>
</svg>
