<svg width="20" height="20" viewBox="0 0 20 20" fill="none" xmlns="http://www.w3.org/2000/svg">
<g clip-path="url(#clip0)">
<path d="M10.0843 4.14395C10.0843 4.14395 10.048 4.14181 9.98309 4.14259C9.95055 4.14286 9.91059 4.14337 9.86489 4.14599C9.81454 4.15243 9.75696 4.16278 9.6918 4.17645C9.62387 4.1897 9.55832 4.20622 9.48489 4.22677C9.41059 4.24638 9.33329 4.27223 9.25204 4.30352C9.08747 4.36427 8.91129 4.44981 8.72727 4.55973C8.68012 4.58626 8.6368 4.61778 8.58993 4.64825C8.54372 4.67923 8.49625 4.71114 8.45079 4.74618C8.35965 4.81618 8.26465 4.89013 8.1754 4.97446C8.07961 5.06095 7.98874 5.15273 7.90321 5.24938C7.88418 5.23368 7.86536 5.21778 7.84602 5.20239C7.81312 5.17698 7.77981 5.1521 7.7461 5.12778C7.74731 5.09329 7.74848 5.0588 7.7495 5.02395C7.74833 4.97766 7.75114 4.93145 7.75211 4.88501C7.75352 4.83856 7.75407 4.79192 7.75782 4.74552C7.76118 4.69911 7.7636 4.65243 7.76442 4.60532L7.77348 4.46493C7.77559 4.41794 7.78114 4.37157 7.78512 4.32493C7.78872 4.27813 7.79012 4.23083 7.79543 4.18446L7.8236 3.90645C7.84317 3.7222 7.86704 3.54138 7.89137 3.36669C7.9043 3.27958 7.91586 3.19352 7.92989 3.1104C7.94215 3.02645 7.9554 2.94513 7.96915 2.86653L7.9879 2.74977C7.99403 2.71149 8.00239 2.67516 8.00793 2.63809C8.01997 2.56446 8.03262 2.4945 8.04489 2.42821C8.05649 2.36184 8.06875 2.29856 8.07797 2.24052C8.08801 2.18348 8.09801 2.13075 8.10543 2.08141C8.10961 2.05677 8.11266 2.03388 8.11735 2.01122L8.12985 1.94587L8.1493 1.84259C8.15497 1.81481 8.15758 1.79231 8.16001 1.77759L8.1634 1.75509L8.16825 1.72302C8.17597 1.67112 8.16833 1.6181 8.14628 1.57049C8.12423 1.52288 8.08874 1.48276 8.04416 1.45508C7.99959 1.4274 7.94789 1.41337 7.89544 1.41472C7.84299 1.41607 7.79208 1.43273 7.74899 1.46266L7.67942 1.51098L7.597 1.56985L7.54485 1.60727C7.52661 1.62122 7.50684 1.63809 7.48606 1.65493L7.34747 1.76954C7.2968 1.81134 7.24786 1.85841 7.19211 1.90845C7.08247 2.00907 6.96016 2.1263 6.83707 2.26368C6.70038 2.41039 6.57162 2.5643 6.45133 2.72474C6.38504 2.81329 6.32021 2.90294 6.25688 2.99364C6.19106 3.0895 6.12863 3.18763 6.06969 3.28786C6.0353 3.34517 6.00159 3.40288 5.96856 3.46098C5.95961 3.42681 5.95043 3.3927 5.94059 3.35884C5.91125 3.23099 5.8734 3.10536 5.84547 2.97888L5.79758 2.79106C5.78368 2.72852 5.76747 2.66649 5.75266 2.60485C5.72059 2.48181 5.69489 2.35981 5.66375 2.24059C5.63516 2.12126 5.60774 2.00415 5.57895 1.89013L5.53911 1.72134C5.52547 1.66587 5.51047 1.61114 5.49868 1.55751C5.47352 1.45016 5.44661 1.34626 5.42231 1.24688C5.39868 1.14759 5.37407 1.05243 5.35082 0.96243C5.33024 0.877521 5.30852 0.792891 5.28567 0.708563L5.22731 0.49243C5.18907 0.362001 5.16176 0.249891 5.13922 0.176493C5.11696 0.102157 5.10305 0.0621959 5.10305 0.0621959C5.09309 0.033506 5.07553 0.00805789 5.05224 -0.011433C5.02895 -0.030924 5.00081 -0.0437264 4.97081 -0.0484744C4.94082 -0.0532224 4.9101 -0.0497377 4.88193 -0.0383922C4.85376 -0.0270466 4.8292 -0.00826599 4.81086 0.0159459C4.81086 0.0159459 4.78532 0.0496959 4.74122 0.113524C4.69782 0.178446 4.63438 0.268446 4.56418 0.397235C4.53016 0.460751 4.48879 0.53243 4.45043 0.610087C4.409 0.693615 4.36899 0.777846 4.33043 0.862743C4.29008 0.953797 4.25063 1.05161 4.2095 1.15559C4.16903 1.25962 4.13207 1.37001 4.09262 1.48606C4.05528 1.6022 4.02079 1.72419 3.98551 1.85126C3.9543 1.97852 3.9211 2.11091 3.89395 2.24806C3.8801 2.3176 3.86714 2.38732 3.85508 2.4572C3.8417 2.52873 3.83046 2.60065 3.82137 2.67286C3.8118 2.74579 3.80086 2.81977 3.79227 2.89454L3.77133 3.12192C3.75789 3.27493 3.75313 3.43204 3.7486 3.59106C3.74711 3.67075 3.74805 3.75122 3.74957 3.832C3.75043 3.89325 3.7518 3.95501 3.75465 4.017C3.69821 4.01856 3.64211 4.02005 3.58661 4.02298C3.43981 4.02735 3.29645 4.04192 3.15766 4.05399C3.01875 4.06864 2.88422 4.08704 2.75473 4.10634C2.68997 4.11688 2.62641 4.12829 2.56422 4.14005C2.502 4.15188 2.44125 4.16184 2.38172 4.17598C2.2627 4.20263 2.14942 4.22876 2.04223 4.2577C1.94086 4.28568 1.83998 4.31537 1.73961 4.34677C1.65163 4.37625 1.56404 4.40691 1.47688 4.43876C1.39602 4.4695 1.32075 4.50126 1.2543 4.52809C1.18762 4.55645 1.12836 4.58294 1.07989 4.6072L0.95477 4.67149C0.886918 4.7079 0.850825 4.72903 0.850825 4.72903C0.824367 4.74452 0.802721 4.76704 0.788296 4.79409C0.77387 4.82114 0.767229 4.85166 0.769112 4.88225C0.770994 4.91285 0.781326 4.94233 0.798958 4.96741C0.81659 4.99248 0.840832 5.01218 0.868989 5.0243C0.868989 5.0243 0.907387 5.04087 0.979184 5.06872L1.11125 5.11724C1.16395 5.13407 1.22122 5.1572 1.28504 5.18075L1.49473 5.25587C1.57669 5.28524 1.65894 5.31382 1.74145 5.34161C1.82895 5.37169 1.92145 5.40462 2.01821 5.43649C2.11497 5.46876 2.21602 5.50536 2.32075 5.53907L2.98645 5.76552L3.1625 5.8263C3.22251 5.84582 3.28215 5.86642 3.34141 5.88809C3.40129 5.91005 3.46204 5.92946 3.52293 5.95032C3.5834 5.97282 3.6443 5.99497 3.70575 6.01599L3.79254 6.04626C3.70555 6.07023 3.61911 6.09614 3.53329 6.12399C3.30516 6.19567 3.09168 6.28298 2.89403 6.36985L2.7495 6.43841C2.70227 6.46095 2.65579 6.48235 2.61133 6.50755C2.522 6.55622 2.43606 6.60126 2.35579 6.64958C2.19368 6.74083 2.052 6.83684 1.92954 6.92399C1.86848 6.9686 1.81153 7.00716 1.76 7.04852L1.61809 7.16263L1.55872 7.21122L1.51141 7.25563L1.43692 7.32595C1.39657 7.36434 1.37547 7.38591 1.37547 7.38591C1.33932 7.42292 1.31427 7.46932 1.30315 7.51985C1.29203 7.57038 1.2953 7.62301 1.31258 7.67178C1.32985 7.72055 1.36045 7.7635 1.4009 7.79576C1.44134 7.82802 1.49002 7.8483 1.54141 7.85431L1.57301 7.85798L1.59625 7.86067C1.61153 7.86227 1.63454 7.86559 1.66368 7.86782C1.69301 7.87052 1.72915 7.87368 1.77102 7.87595L1.8386 7.88001C1.86172 7.88161 1.88524 7.88427 1.91047 7.88661C1.9609 7.89223 2.015 7.89567 2.07325 7.9004C2.13297 7.90649 2.19743 7.90962 2.26524 7.91493L2.47895 7.93028C2.55321 7.93509 2.63036 7.9402 2.71043 7.94712C2.78997 7.9522 2.87215 7.95868 2.95629 7.96583L3.21348 7.98657C3.38832 8.00286 3.56848 8.01833 3.75122 8.03852C3.8427 8.0486 3.9345 8.05954 4.02665 8.0686L4.16516 8.08759C4.18825 8.09063 4.21129 8.09212 4.23438 8.09485L4.3036 8.10407C4.45879 8.12438 4.61313 8.1486 4.76614 8.17345C4.54372 8.30688 4.34375 8.45493 4.1711 8.61337C4.07864 8.69415 3.99594 8.78169 3.91758 8.86571C3.87832 8.90763 3.84204 8.95181 3.8068 8.99485C3.772 9.0386 3.73653 9.07868 3.70559 9.12309C3.5786 9.29583 3.47661 9.46302 3.40047 9.62102C3.36161 9.69891 3.32848 9.77337 3.30188 9.84548C3.27442 9.91661 3.25172 9.98028 3.23207 10.0466C3.21223 10.1102 3.19645 10.1665 3.1852 10.216C3.17933 10.255 3.17445 10.2941 3.17055 10.3334C3.1636 10.3979 3.16227 10.4342 3.16227 10.4342C3.16123 10.4666 3.16468 10.499 3.17254 10.5305C3.18355 10.5737 3.20294 10.6142 3.22962 10.6499C3.2563 10.6855 3.28974 10.7156 3.32804 10.7383C3.36633 10.761 3.40873 10.776 3.4528 10.7824C3.49688 10.7887 3.54178 10.7863 3.58493 10.7753L3.58512 10.7752C3.58512 10.7752 3.62036 10.7663 3.682 10.7458C3.71953 10.7337 3.75675 10.7207 3.79364 10.7067C3.83866 10.6962 3.88355 10.6851 3.92829 10.6735C3.97493 10.6624 4.03309 10.6472 4.09172 10.6308L4.1825 10.6054C4.21509 10.5974 4.24757 10.589 4.27993 10.5801C4.41098 10.5441 4.55754 10.5086 4.70891 10.4704L4.9429 10.4147C5.02344 10.3977 5.10282 10.3772 5.18547 10.3608C5.34832 10.3236 5.51606 10.2916 5.682 10.2613C5.84778 10.2287 6.01387 10.2073 6.17418 10.1844C6.3354 10.1618 6.49125 10.1492 6.64137 10.1399L6.69754 10.1361C6.71633 10.1345 6.73497 10.1326 6.75309 10.1333C6.78961 10.1333 6.82614 10.1315 6.86278 10.1291C6.93395 10.1317 7.0068 10.1254 7.07606 10.1298C7.14739 10.1279 7.21516 10.1359 7.28583 10.1363L7.38946 10.1451C7.40672 10.1468 7.42458 10.147 7.44215 10.1481L7.49372 10.1552C7.5279 10.1607 7.56403 10.1618 7.59915 10.1664C7.63392 10.1734 7.66895 10.1791 7.70415 10.1835C7.72184 10.1863 7.74008 10.1878 7.75758 10.1914L7.81028 10.2026C7.84559 10.21 7.8811 10.2173 7.91786 10.223C7.98059 10.24 8.04536 10.2548 8.11 10.2711C8.12458 10.283 8.13934 10.2945 8.15473 10.305C8.24053 10.367 8.32824 10.4264 8.41774 10.4829C8.49987 10.5287 8.58336 10.572 8.66809 10.6128L8.72622 10.6406C8.74532 10.6496 8.76547 10.6562 8.78446 10.6638C8.82258 10.6787 8.85977 10.6921 8.89547 10.7046C8.9604 10.7278 9.02607 10.7488 9.09239 10.7676C9.14679 10.781 9.20161 10.7926 9.25676 10.8025C9.30442 10.8118 9.34586 10.8179 9.37938 10.8225C9.44622 10.8318 9.48309 10.8339 9.48309 10.8339C9.5142 10.8354 9.54537 10.8327 9.57575 10.8258C9.64135 10.8106 9.70063 10.7754 9.74547 10.7252C9.78512 10.6961 9.8177 10.6584 9.84079 10.615C9.86387 10.5715 9.87688 10.5234 9.87883 10.4743C9.87883 10.4743 9.88032 10.4374 9.87735 10.3699C9.87584 10.3285 9.87309 10.2872 9.86911 10.2459C9.86454 10.1901 9.85819 10.1344 9.85008 10.079C9.83769 10.0112 9.82305 9.9438 9.80618 9.87696C9.79719 9.84024 9.78735 9.80196 9.77618 9.76259C9.7704 9.74298 9.76575 9.72223 9.7586 9.70239L9.73645 9.64188C9.70394 9.55365 9.6688 9.46641 9.63106 9.38028C9.5833 9.28581 9.53261 9.19285 9.47907 9.10153C9.46995 9.08518 9.46011 9.06924 9.44958 9.05376C9.43958 8.98786 9.43102 8.92196 9.42 8.8579C9.41768 8.82147 9.41435 8.78512 9.41 8.74887L9.40383 8.69532C9.40196 8.67755 9.40215 8.65927 9.40114 8.64138C9.40008 8.60591 9.39774 8.5705 9.39411 8.5352C9.39286 8.49981 9.39528 8.46376 9.39305 8.42919L9.3909 8.37716C9.39145 8.35954 9.39301 8.34177 9.39293 8.32438L9.39407 8.2204C9.40036 8.15001 9.39887 8.08177 9.40754 8.01095C9.40981 7.94157 9.42301 7.86966 9.42727 7.79856C9.43305 7.76231 9.4384 7.72614 9.44184 7.68977C9.4429 7.67169 9.44653 7.65333 9.44993 7.63477L9.45907 7.57923C9.48274 7.43071 9.51012 7.27673 9.54801 7.11845C9.58606 6.96102 9.62325 6.79774 9.67149 6.63583C9.71751 6.47356 9.7654 6.30966 9.8179 6.15106C9.84208 6.07036 9.87016 5.99329 9.89477 5.91473L9.97247 5.68712C10.025 5.54009 10.0743 5.39759 10.1226 5.27059C10.1347 5.23876 10.1463 5.20723 10.1572 5.17602L10.1911 5.08809C10.2114 5.03558 10.2308 4.9827 10.2491 4.92946C10.2661 4.8827 10.2816 4.83903 10.2951 4.7986C10.3154 4.75759 10.3316 4.72102 10.3447 4.69118C10.3709 4.63177 10.3832 4.59759 10.3832 4.59759L10.3839 4.59591C10.3945 4.56581 10.4008 4.53437 10.4027 4.50251C10.4053 4.45805 10.3992 4.4135 10.3847 4.37141C10.3701 4.32932 10.3474 4.29051 10.3178 4.25721C10.2882 4.22391 10.2524 4.19676 10.2123 4.17733C10.1722 4.1579 10.1287 4.14655 10.0843 4.14395Z" fill="#2BA52E"/>
<path d="M17.3092 18.1587L17.151 18.3169C15.1191 20.3489 11.8247 20.3489 9.79272 18.3169L7.65397 16.1782C5.62202 14.1462 5.62202 10.8518 7.65397 8.81986L7.81217 8.66166C9.84413 6.62971 13.1385 6.62971 15.1705 8.66166L17.3092 10.8004C19.3412 12.8323 19.3412 16.1268 17.3092 18.1587Z" fill="#FFD469"/>
<path d="M8.61585 11.988H7.72605C7.68801 11.988 7.65152 11.9729 7.62462 11.946C7.59772 11.9191 7.58261 11.8826 7.58261 11.8445V10.9547C7.58261 10.9359 7.58632 10.9173 7.59353 10.8998C7.60074 10.8824 7.6113 10.8666 7.62462 10.8533C7.63794 10.84 7.65376 10.8294 7.67116 10.8222C7.68856 10.815 7.70721 10.8113 7.72605 10.8113H8.61585C8.63469 10.8113 8.65334 10.815 8.67075 10.8222C8.68815 10.8294 8.70396 10.84 8.71728 10.8533C8.7306 10.8666 8.74117 10.8824 8.74837 10.8998C8.75558 10.9173 8.75929 10.9359 8.75929 10.9547V11.8445C8.75929 11.8826 8.74418 11.9191 8.71728 11.946C8.69038 11.9729 8.6539 11.988 8.61585 11.988ZM10.7884 9.81544V8.92564C10.7884 8.8876 10.7733 8.85111 10.7464 8.82421C10.7195 8.79731 10.683 8.7822 10.645 8.7822H9.75515C9.71711 8.7822 9.68063 8.79731 9.65373 8.82421C9.62683 8.85111 9.61171 8.8876 9.61171 8.92564V9.81544C9.61171 9.85349 9.62683 9.88997 9.65373 9.91687C9.68063 9.94377 9.71711 9.95888 9.75515 9.95888H10.645C10.683 9.95888 10.7195 9.94377 10.7464 9.91687C10.7733 9.88997 10.7884 9.85349 10.7884 9.81544ZM10.0188 17.1622V16.2724C10.0188 16.2536 10.0151 16.2349 10.0079 16.2175C10.0007 16.2001 9.99013 16.1843 9.97681 16.171C9.96349 16.1577 9.94768 16.1471 9.93028 16.1399C9.91287 16.1327 9.89422 16.129 9.87539 16.129H8.98558C8.96675 16.129 8.94809 16.1327 8.93069 16.1399C8.91329 16.1471 8.89748 16.1577 8.88416 16.171C8.87084 16.1843 8.86027 16.2001 8.85306 16.2175C8.84585 16.2349 8.84214 16.2536 8.84214 16.2724V17.1622C8.84214 17.2003 8.85726 17.2368 8.88416 17.2637C8.91106 17.2906 8.94754 17.3057 8.98558 17.3057H9.87539C9.91343 17.3057 9.94991 17.2906 9.97681 17.2637C10.0037 17.2368 10.0188 17.2003 10.0188 17.1622ZM12.0479 15.1332V14.2434C12.0479 14.2053 12.0328 14.1688 12.0059 14.1419C11.979 14.115 11.9425 14.0999 11.9045 14.0999H11.0147C10.9958 14.0999 10.9772 14.1036 10.9598 14.1109C10.9424 14.1181 10.9266 14.1286 10.9133 14.1419C10.8999 14.1553 10.8894 14.1711 10.8822 14.1885C10.875 14.2059 10.8712 14.2245 10.8712 14.2434V15.1332C10.8712 15.152 10.875 15.1707 10.8822 15.1881C10.8894 15.2055 10.8999 15.2213 10.9133 15.2346C10.9266 15.2479 10.9424 15.2585 10.9598 15.2657C10.9772 15.2729 10.9958 15.2766 11.0147 15.2766H11.9045C11.9425 15.2766 11.979 15.2615 12.0059 15.2346C12.0328 15.2077 12.0479 15.1712 12.0479 15.1332ZM14.077 13.1041V12.2143C14.077 12.1954 14.0733 12.1768 14.0661 12.1594C14.0589 12.142 14.0483 12.1262 14.035 12.1128C14.0217 12.0995 14.0059 12.089 13.9885 12.0818C13.9711 12.0745 13.9524 12.0708 13.9336 12.0708H13.0438C13.0249 12.0708 13.0063 12.0745 12.9889 12.0818C12.9715 12.089 12.9557 12.0995 12.9424 12.1128C12.929 12.1262 12.9185 12.142 12.9113 12.1594C12.9041 12.1768 12.9003 12.1954 12.9003 12.2143V13.1041C12.9003 13.1421 12.9155 13.1786 12.9424 13.2055C12.9693 13.2324 13.0057 13.2475 13.0438 13.2475H13.9336C13.9524 13.2475 13.9711 13.2438 13.9885 13.2366C14.0059 13.2294 14.0217 13.2188 14.035 13.2055C14.0483 13.1922 14.0589 13.1764 14.0661 13.159C14.0733 13.1416 14.077 13.1229 14.077 13.1041ZM16.1061 11.075V10.1852C16.1061 10.1471 16.091 10.1106 16.0641 10.0837C16.0372 10.0568 16.0007 10.0417 15.9627 10.0417H15.0728C15.054 10.0417 15.0354 10.0454 15.018 10.0527C15.0006 10.0599 14.9847 10.0704 14.9714 10.0837C14.9581 10.0971 14.9475 10.1129 14.9403 10.1303C14.9331 10.1477 14.9294 10.1663 14.9294 10.1852V11.075C14.9294 11.0938 14.9331 11.1125 14.9403 11.1299C14.9475 11.1473 14.9581 11.1631 14.9714 11.1764C14.9847 11.1897 15.0006 11.2003 15.018 11.2075C15.0354 11.2147 15.054 11.2184 15.0728 11.2184H15.9627C15.9815 11.2184 16.0001 11.2147 16.0175 11.2075C16.0349 11.2003 16.0508 11.1897 16.0641 11.1764C16.0774 11.1631 16.088 11.1473 16.0952 11.1299C16.1024 11.1125 16.1061 11.0938 16.1061 11.075ZM9.48054 14.5949V13.7051C9.48054 13.667 9.46543 13.6306 9.43853 13.6037C9.41163 13.5768 9.37515 13.5617 9.3371 13.5617H8.4473C8.40926 13.5617 8.37277 13.5768 8.34587 13.6037C8.31897 13.6306 8.30386 13.667 8.30386 13.7051V14.5949C8.30386 14.6329 8.31897 14.6694 8.34587 14.6963C8.37277 14.7232 8.40926 14.7383 8.4473 14.7383H9.3371C9.37515 14.7383 9.41163 14.7232 9.43853 14.6963C9.46543 14.6694 9.48054 14.6329 9.48054 14.5949ZM11.5096 12.5658V11.676C11.5096 11.6379 11.4945 11.6015 11.4676 11.5746C11.4407 11.5477 11.4042 11.5326 11.3662 11.5326H10.4764C10.4384 11.5326 10.4019 11.5477 10.375 11.5746C10.3481 11.6015 10.333 11.6379 10.333 11.676V12.5658C10.333 12.6038 10.3481 12.6403 10.375 12.6672C10.4019 12.6941 10.4384 12.7092 10.4764 12.7092H11.3662C11.4042 12.7092 11.4407 12.6941 11.4676 12.6672C11.4945 12.6403 11.5096 12.6038 11.5096 12.5658ZM13.5387 10.5367V9.64689C13.5387 9.62805 13.535 9.6094 13.5278 9.592C13.5206 9.5746 13.5101 9.55878 13.4967 9.54546C13.4834 9.53214 13.4676 9.52158 13.4502 9.51437C13.4328 9.50716 13.4141 9.50345 13.3953 9.50345H12.5055C12.4675 9.50345 12.431 9.51856 12.4041 9.54546C12.3772 9.57236 12.3621 9.60885 12.3621 9.64689V10.5367C12.3621 10.5747 12.3772 10.6112 12.4041 10.6381C12.431 10.665 12.4675 10.6801 12.5055 10.6801H13.3953C13.4141 10.6801 13.4328 10.6764 13.4502 10.6692C13.4676 10.662 13.4834 10.6514 13.4967 10.6381C13.5101 10.6248 13.5206 10.609 13.5278 10.5916C13.535 10.5742 13.5387 10.5555 13.5387 10.5367ZM15.3365 18.4218V17.532C15.3365 17.4939 15.3214 17.4574 15.2945 17.4305C15.2676 17.4036 15.2311 17.3885 15.1931 17.3885H14.3033C14.2652 17.3885 14.2288 17.4036 14.2019 17.4305C14.175 17.4574 14.1598 17.4939 14.1598 17.532V18.4218C14.1598 18.4598 14.175 18.4963 14.2019 18.5232C14.2288 18.5501 14.2652 18.5652 14.3033 18.5652H15.1931C15.2311 18.5652 15.2676 18.5501 15.2945 18.5232C15.3214 18.4963 15.3365 18.4598 15.3365 18.4218ZM17.3656 16.3927V15.5029C17.3656 15.484 17.3619 15.4654 17.3547 15.448C17.3475 15.4306 17.3369 15.4148 17.3236 15.4014C17.3103 15.3881 17.2945 15.3776 17.2771 15.3703C17.2597 15.3631 17.241 15.3594 17.2222 15.3594H16.3324C16.3135 15.3594 16.2949 15.3631 16.2775 15.3703C16.2601 15.3776 16.2443 15.3881 16.231 15.4014C16.2176 15.4148 16.2071 15.4306 16.1999 15.448C16.1927 15.4654 16.1889 15.484 16.1889 15.5029V16.3927C16.1889 16.4115 16.1927 16.4302 16.1999 16.4476C16.2071 16.465 16.2176 16.4808 16.231 16.4941C16.2443 16.5074 16.2601 16.518 16.2775 16.5252C16.2949 16.5324 16.3135 16.5361 16.3324 16.5361H17.2222C17.241 16.5361 17.2597 16.5324 17.2771 16.5252C17.2945 16.518 17.3103 16.5074 17.3236 16.4941C17.3369 16.4808 17.3475 16.465 17.3547 16.4476C17.3619 16.4302 17.3656 16.4115 17.3656 16.3927ZM12.7692 17.8835V16.9937C12.7692 16.9556 12.7541 16.9192 12.7272 16.8923C12.7003 16.8654 12.6638 16.8502 12.6257 16.8502H11.7359C11.6979 16.8502 11.6614 16.8654 11.6345 16.8923C11.6076 16.9192 11.5925 16.9556 11.5925 16.9937V17.8835C11.5925 17.9215 11.6076 17.958 11.6345 17.9849C11.6614 18.0118 11.6979 18.0269 11.7359 18.0269H12.6257C12.6638 18.0269 12.7003 18.0118 12.7272 17.9849C12.7541 17.958 12.7692 17.9215 12.7692 17.8835ZM14.7982 15.8544V14.9646C14.7982 14.9457 14.7945 14.9271 14.7873 14.9097C14.7801 14.8923 14.7695 14.8765 14.7562 14.8632C14.7429 14.8498 14.7271 14.8393 14.7097 14.8321C14.6923 14.8249 14.6736 14.8211 14.6548 14.8211H13.765C13.7462 14.8211 13.7275 14.8249 13.7101 14.8321C13.6927 14.8393 13.6769 14.8498 13.6636 14.8632C13.6503 14.8765 13.6397 14.8923 13.6325 14.9097C13.6253 14.9271 13.6216 14.9457 13.6216 14.9646V15.8544C13.6216 15.8732 13.6253 15.8919 13.6325 15.9093C13.6397 15.9267 13.6503 15.9425 13.6636 15.9558C13.6769 15.9691 13.6927 15.9797 13.7101 15.9869C13.7275 15.9941 13.7462 15.9978 13.765 15.9978H14.6548C14.6928 15.9978 14.7293 15.9827 14.7562 15.9558C14.7831 15.9289 14.7982 15.8924 14.7982 15.8544ZM16.8273 13.8253V12.9355C16.8273 12.8974 16.8122 12.861 16.7853 12.8341C16.7584 12.8072 16.7219 12.792 16.6839 12.792H15.7941C15.7561 12.792 15.7196 12.8072 15.6927 12.8341C15.6658 12.861 15.6507 12.8974 15.6507 12.9355V13.8253C15.6507 13.8441 15.6544 13.8628 15.6616 13.8802C15.6688 13.8976 15.6794 13.9134 15.6927 13.9267C15.706 13.94 15.7218 13.9506 15.7392 13.9578C15.7566 13.965 15.7753 13.9687 15.7941 13.9687H16.6839C16.7027 13.9687 16.7214 13.965 16.7388 13.9578C16.7562 13.9506 16.772 13.94 16.7853 13.9267C16.7986 13.9134 16.8092 13.8976 16.8164 13.8802C16.8236 13.8628 16.8273 13.8441 16.8273 13.8253ZM17.6798 11.2123V11.7962C17.6798 11.815 17.6835 11.8337 17.6907 11.8511C17.6979 11.8685 17.7085 11.8843 17.7218 11.8976C17.7351 11.9109 17.7509 11.9215 17.7683 11.9287C17.7857 11.9359 17.8044 11.9396 17.8232 11.9396H18.1726C18.0292 11.6837 17.8643 11.4403 17.6798 11.2123ZM18.218 13.4738V14.3636C18.218 14.3824 18.2218 14.4011 18.229 14.4185C18.2362 14.4359 18.2467 14.4517 18.2601 14.465C18.2734 14.4783 18.2892 14.4889 18.3066 14.4961C18.324 14.5033 18.3426 14.507 18.3615 14.507H18.8329C18.835 14.1112 18.7921 13.7165 18.7051 13.3303H18.3615C18.3234 13.3303 18.287 13.3454 18.2601 13.3723C18.2332 13.3992 18.218 13.4357 18.218 13.4738ZM13.164 19.4176H12.2742C12.2361 19.4176 12.1996 19.4327 12.1727 19.4596C12.1458 19.4865 12.1307 19.523 12.1307 19.5611V19.6657C12.5151 19.7678 12.9099 19.8255 13.3074 19.8379V19.5611C13.3074 19.5422 13.3037 19.5236 13.2965 19.5062C13.2893 19.4888 13.2787 19.473 13.2654 19.4596C13.2521 19.4463 13.2363 19.4358 13.2189 19.4285C13.2015 19.4213 13.1828 19.4176 13.164 19.4176ZM14.5346 8.65103H15.1597C14.9242 8.4167 14.6668 8.20537 14.3912 8.0199V8.50759C14.3912 8.52643 14.3949 8.54508 14.4021 8.56248C14.4093 8.57989 14.4199 8.5957 14.4332 8.60902C14.4465 8.62234 14.4623 8.6329 14.4797 8.64011C14.4971 8.64732 14.5158 8.65103 14.5346 8.65103ZM11.6408 7.14001V7.78638C11.6408 7.82442 11.6559 7.86091 11.6828 7.88781C11.7097 7.91471 11.7462 7.92982 11.7843 7.92982H12.6741C12.7121 7.92982 12.7486 7.91471 12.7755 7.88781C12.8024 7.86091 12.8175 7.82442 12.8175 7.78638V7.30896C12.433 7.20803 12.0382 7.15134 11.6408 7.14001ZM6.58679 12.8404H6.14148C6.16753 13.2395 6.23941 13.6344 6.3557 14.0171H6.58679C6.62483 14.0171 6.66132 14.002 6.68822 13.9751C6.71512 13.9482 6.73023 13.9117 6.73023 13.8736V12.9838C6.73023 12.9458 6.71512 12.9093 6.68822 12.8824C6.66132 12.8555 6.62483 12.8404 6.58679 12.8404Z" fill="#FFC136"/>
</g>
<defs>
<clipPath id="clip0">
<rect width="20" height="20" fill="white"/>
</clipPath>
</defs>
</svg>
