<svg width="22" height="25" viewBox="0 0 22 25" fill="none" xmlns="http://www.w3.org/2000/svg">
<path fill-rule="evenodd" clip-rule="evenodd" d="M0 3.57143C0 2.62423 0.376274 1.71582 1.04605 1.04605C1.71582 0.376274 2.62423 0 3.57143 0H17.8571C18.8043 0 19.7127 0.376274 20.3825 1.04605C21.0523 1.71582 21.4286 2.62423 21.4286 3.57143V21.4286C21.4286 22.3758 21.0523 23.2842 20.3825 23.954C19.7127 24.6237 18.8043 25 17.8571 25H3.57143C2.62423 25 1.71582 24.6237 1.04605 23.954C0.376274 23.2842 0 22.3758 0 21.4286V3.57143ZM10.7143 16.0714C11.4178 16.0714 12.1144 15.9329 12.7644 15.6636C13.4143 15.3944 14.0049 14.9998 14.5024 14.5024C14.9998 14.0049 15.3944 13.4143 15.6636 12.7644C15.9329 12.1144 16.0714 11.4178 16.0714 10.7143C16.0714 10.0108 15.9329 9.31415 15.6636 8.6642C15.3944 8.01424 14.9998 7.42367 14.5024 6.92621C14.0049 6.42876 13.4143 6.03415 12.7644 5.76493C12.1144 5.49571 11.4178 5.35714 10.7143 5.35714C9.29348 5.35714 7.93087 5.92155 6.92621 6.92621C5.92155 7.93087 5.35714 9.29348 5.35714 10.7143C5.35714 12.1351 5.92155 13.4977 6.92621 14.5024C7.93087 15.507 9.29348 16.0714 10.7143 16.0714ZM19.6429 20.9911C18.1179 19.3304 15.3982 17.8571 10.7143 17.8571C6.03036 17.8571 3.31071 19.3321 1.78571 20.9911V21.4286C1.78571 21.9022 1.97385 22.3564 2.30874 22.6913C2.64362 23.0261 3.09783 23.2143 3.57143 23.2143H17.8571C18.3307 23.2143 18.7849 23.0261 19.1198 22.6913C19.4547 22.3564 19.6429 21.9022 19.6429 21.4286V20.9911Z" fill="#226ED8"/>
</svg>
