<svg width="23" height="23" viewBox="0 0 23 23" fill="none" xmlns="http://www.w3.org/2000/svg">
<path d="M11.4971 5.59939C8.23179 5.59939 5.59651 8.23467 5.59651 11.5C5.59651 14.7653 8.23179 17.4006 11.4971 17.4006C14.7625 17.4006 17.3977 14.7653 17.3977 11.5C17.3977 8.23467 14.7625 5.59939 11.4971 5.59939ZM11.4971 15.335C9.38545 15.335 7.66216 13.6117 7.66216 11.5C7.66216 9.38832 9.38545 7.66503 11.4971 7.66503C13.6088 7.66503 15.3321 9.38832 15.3321 11.5C15.3321 13.6117 13.6088 15.335 11.4971 15.335ZM17.6394 3.98255C16.877 3.98255 16.2613 4.59821 16.2613 5.3606C16.2613 6.12299 16.877 6.73866 17.6394 6.73866C18.4018 6.73866 19.0175 6.12587 19.0175 5.3606C19.0177 5.17957 18.9822 5.00027 18.913 4.83297C18.8438 4.66568 18.7423 4.51367 18.6143 4.38566C18.4863 4.25765 18.3343 4.15616 18.167 4.08698C17.9997 4.01781 17.8204 3.98232 17.6394 3.98255ZM22.9991 11.5C22.9991 9.91193 23.0135 8.33824 22.9243 6.75304C22.8352 4.9118 22.4151 3.27769 21.0687 1.93128C19.7194 0.581998 18.0882 0.164841 16.247 0.0756562C14.6589 -0.013529 13.0852 0.00085573 11.5 0.00085573C9.91193 0.00085573 8.33824 -0.013529 6.75304 0.0756562C4.9118 0.164841 3.27769 0.584875 1.93129 1.93128C0.581998 3.28057 0.164841 4.9118 0.0756562 6.75304C-0.013529 8.34112 0.00085573 9.9148 0.00085573 11.5C0.00085573 13.0852 -0.013529 14.6618 0.0756562 16.247C0.164841 18.0882 0.584875 19.7223 1.93129 21.0687C3.28057 22.418 4.9118 22.8352 6.75304 22.9243C8.34112 23.0135 9.9148 22.9991 11.5 22.9991C13.0881 22.9991 14.6618 23.0135 16.247 22.9243C18.0882 22.8352 19.7223 22.4151 21.0687 21.0687C22.418 19.7194 22.8352 18.0882 22.9243 16.247C23.0164 14.6618 22.9991 13.0881 22.9991 11.5ZM20.4674 18.2838C20.2574 18.8074 20.0042 19.1987 19.5986 19.6015C19.1929 20.0071 18.8046 20.2603 18.281 20.4703C16.7677 21.0716 13.1744 20.9364 11.4971 20.9364C9.81986 20.9364 6.22369 21.0716 4.71041 20.4732C4.18681 20.2632 3.79554 20.01 3.39277 19.6044C2.98712 19.1987 2.73395 18.8103 2.52394 18.2867C1.92553 16.7706 2.06075 13.1773 2.06075 11.5C2.06075 9.82274 1.92553 6.22656 2.52394 4.71329C2.73395 4.18969 2.98712 3.79842 3.39277 3.39565C3.79842 2.99288 4.18681 2.73683 4.71041 2.52681C6.22369 1.92841 9.81986 2.06362 11.4971 2.06362C13.1744 2.06362 16.7706 1.92841 18.2838 2.52681C18.8074 2.73683 19.1987 2.99 19.6015 3.39565C20.0071 3.8013 20.2603 4.18969 20.4703 4.71329C21.0687 6.22656 20.9335 9.82274 20.9335 11.5C20.9335 13.1773 21.0687 16.7706 20.4674 18.2838Z" fill="#FDFDFD"/>
</svg>
