<svg width="20" height="20" viewBox="0 0 20 20" fill="none" xmlns="http://www.w3.org/2000/svg">
<path d="M9.9975 4.86903C7.15808 4.86903 4.86653 7.16058 4.86653 10C4.86653 12.8394 7.15808 15.131 9.9975 15.131C12.8369 15.131 15.1285 12.8394 15.1285 10C15.1285 7.16058 12.8369 4.86903 9.9975 4.86903ZM9.9975 13.3348C8.16126 13.3348 6.66274 11.8362 6.66274 10C6.66274 8.16376 8.16126 6.66525 9.9975 6.66525C11.8337 6.66525 13.3323 8.16376 13.3323 10C13.3323 11.8362 11.8337 13.3348 9.9975 13.3348ZM15.3386 3.46308C14.6757 3.46308 14.1403 3.99845 14.1403 4.66139C14.1403 5.32434 14.6757 5.8597 15.3386 5.8597C16.0016 5.8597 16.5369 5.32684 16.5369 4.66139C16.5371 4.50397 16.5063 4.34806 16.4461 4.20259C16.386 4.05711 16.2977 3.92493 16.1864 3.81362C16.0751 3.70231 15.9429 3.61405 15.7974 3.5539C15.6519 3.49375 15.496 3.46289 15.3386 3.46308ZM19.9993 10C19.9993 8.61907 20.0118 7.25064 19.9342 5.87221C19.8567 4.27113 19.4914 2.85017 18.3206 1.67938C17.1473 0.506085 15.7289 0.14334 14.1278 0.065788C12.7469 -0.0117644 11.3784 0.000744113 10 0.000744113C8.61907 0.000744113 7.25064 -0.0117644 5.87221 0.065788C4.27113 0.14334 2.85017 0.508587 1.67938 1.67938C0.506086 2.85267 0.14334 4.27113 0.065788 5.87221C-0.0117644 7.25314 0.000744113 8.62157 0.000744113 10C0.000744113 11.3784 -0.0117644 12.7494 0.065788 14.1278C0.14334 15.7289 0.508587 17.1498 1.67938 18.3206C2.85267 19.4939 4.27113 19.8567 5.87221 19.9342C7.25314 20.0118 8.62157 19.9993 10 19.9993C11.3809 19.9993 12.7494 20.0118 14.1278 19.9342C15.7289 19.8567 17.1498 19.4914 18.3206 18.3206C19.4939 17.1473 19.8567 15.7289 19.9342 14.1278C20.0143 12.7494 19.9993 11.3809 19.9993 10ZM17.7978 15.899C17.6151 16.3543 17.395 16.6945 17.0423 17.0448C16.6895 17.3975 16.3518 17.6176 15.8965 17.8003C14.5806 18.3231 11.456 18.2055 9.9975 18.2055C8.53901 18.2055 5.4119 18.3231 4.09601 17.8028C3.6407 17.6201 3.30047 17.4 2.95024 17.0473C2.5975 16.6945 2.37735 16.3568 2.19473 15.9015C1.67438 14.5831 1.79195 11.4585 1.79195 10C1.79195 8.54151 1.67438 5.4144 2.19473 4.09851C2.37735 3.6432 2.5975 3.30298 2.95024 2.95274C3.30298 2.6025 3.6407 2.37985 4.09601 2.19723C5.4119 1.67688 8.53901 1.79446 9.9975 1.79446C11.456 1.79446 14.5831 1.67688 15.899 2.19723C16.3543 2.37985 16.6945 2.6 17.0448 2.95274C17.3975 3.30548 17.6176 3.6432 17.8003 4.09851C18.3206 5.4144 18.203 8.54151 18.203 10C18.203 11.4585 18.3206 14.5831 17.7978 15.899Z" fill="black"/>
</svg>
