<svg width="21" height="20" viewBox="0 0 21 20" fill="none" xmlns="http://www.w3.org/2000/svg">
<path d="M4.74973 20V6.50603H0.264619V20H4.74973ZM2.50775 4.66256C4.07179 4.66256 5.04533 3.62638 5.04533 2.3315C5.01619 1.00742 4.07185 0 2.53743 0C1.00326 0 0 1.00744 0 2.3315C0 3.62644 0.973297 4.66256 2.47847 4.66256H2.50761H2.50775ZM7.23222 20H11.7173V12.4643C11.7173 12.061 11.7465 11.6581 11.8649 11.3698C12.1891 10.564 12.9271 9.72949 14.1661 9.72949C15.7891 9.72949 16.4384 10.9669 16.4384 12.7809V19.9999H20.9232V12.2626C20.9232 8.11777 18.7105 6.18923 15.7595 6.18923C13.34 6.18923 12.2777 7.54167 11.6875 8.46281H11.7174V6.50575H7.23232C7.29118 7.77195 7.23232 19.9997 7.23232 19.9997L7.23222 20Z" fill="black"/>
</svg>
