<svg width="28" height="25" viewBox="0 0 28 25" fill="none" xmlns="http://www.w3.org/2000/svg">
<path d="M25.4231 0.0791929L8.17288 6.23882V15.7738L9.19177 16.1375L7.65663 19.2078C7.48178 19.5569 7.38403 19.9394 7.37001 20.3296C7.35599 20.7197 7.42603 21.1083 7.57537 21.469C7.72472 21.8297 7.94987 22.1541 8.23558 22.4201C8.52128 22.6861 8.86086 22.8876 9.23127 23.0109L14.7943 24.8648C15.4166 25.0677 16.0909 25.0415 16.6956 24.791C17.3003 24.5405 17.7955 24.0821 18.092 23.4986L19.8669 19.9488L25.4231 21.9335C25.6286 22.0068 25.8486 22.0296 26.0648 22.0002C26.2809 21.9707 26.4868 21.8898 26.6652 21.7642C26.8435 21.6385 26.9891 21.4719 27.0896 21.2783C27.1902 21.0847 27.2427 20.8698 27.2429 20.6517V1.36097C27.2427 1.14283 27.1902 0.927922 27.0896 0.73433C26.9891 0.540738 26.8435 0.374125 26.6652 0.248509C26.4868 0.122893 26.2809 0.0419472 26.0648 0.0124827C25.8486 -0.0169817 25.6286 0.00589652 25.4231 0.0791929ZM15.6552 22.2808L10.0935 20.4269L11.7758 17.0611L17.2816 19.028L15.6552 22.2808ZM2.72429 15.7738H5.44859V6.23882H2.72429C1.22185 6.23882 0 7.46067 0 8.96311V13.0496C0 14.552 1.22185 15.7738 2.72429 15.7738Z" fill="#226ED8"/>
</svg>
