<svg width="34" height="25" viewBox="0 0 34 25" fill="none" xmlns="http://www.w3.org/2000/svg">
<path fill-rule="evenodd" clip-rule="evenodd" d="M14.5833 25C14.5833 25 12.5 25 12.5 22.9167C12.5 20.8333 14.5833 14.5833 22.9167 14.5833C31.25 14.5833 33.3333 20.8333 33.3333 22.9167C33.3333 25 31.25 25 31.25 25H14.5833ZM22.9167 12.5C24.5743 12.5 26.164 11.8415 27.3361 10.6694C28.5082 9.49731 29.1667 7.9076 29.1667 6.25C29.1667 4.5924 28.5082 3.00269 27.3361 1.83058C26.164 0.65848 24.5743 0 22.9167 0C21.2591 0 19.6693 0.65848 18.4972 1.83058C17.3251 3.00269 16.6667 4.5924 16.6667 6.25C16.6667 7.9076 17.3251 9.49731 18.4972 10.6694C19.6693 11.8415 21.2591 12.5 22.9167 12.5ZM10.8667 25C10.5578 24.3496 10.4038 23.6365 10.4167 22.9167C10.4167 20.0938 11.8333 17.1875 14.45 15.1667C13.1439 14.7642 11.7832 14.5674 10.4167 14.5833C2.08333 14.5833 0 20.8333 0 22.9167C0 25 2.08333 25 2.08333 25H10.8667ZM9.375 12.5C10.7563 12.5 12.0811 11.9513 13.0578 10.9745C14.0346 9.99776 14.5833 8.673 14.5833 7.29167C14.5833 5.91033 14.0346 4.58557 13.0578 3.60882C12.0811 2.63207 10.7563 2.08333 9.375 2.08333C7.99366 2.08333 6.6689 2.63207 5.69215 3.60882C4.7154 4.58557 4.16667 5.91033 4.16667 7.29167C4.16667 8.673 4.7154 9.99776 5.69215 10.9745C6.6689 11.9513 7.99366 12.5 9.375 12.5Z" fill="#226ED8"/>
</svg>
