<svg width="25" height="25" viewBox="0 0 25 25" fill="none" xmlns="http://www.w3.org/2000/svg">
<path d="M22.3687 11.8407H25.0002C25.0002 5.09076 19.9042 0 13.145 0V2.63156C18.4897 2.63156 22.3687 6.50391 22.3687 11.8407Z" fill="#226ED8"/>
<path d="M13.1582 7.89478C15.9253 7.89478 17.1055 9.07504 17.1055 11.8421H19.7371C19.7371 7.59873 17.4016 5.26321 13.1582 5.26321V7.89478ZM17.6608 15.0566C17.408 14.8268 17.0757 14.7042 16.7342 14.7148C16.3927 14.7253 16.0687 14.8682 15.8305 15.1132L12.6819 18.3513C11.924 18.2066 10.4003 17.7316 8.8319 16.1671C7.26349 14.5974 6.78849 13.0698 6.6477 12.3171L9.88321 9.16714C10.1285 8.92915 10.2715 8.60507 10.2821 8.26347C10.2927 7.92187 10.1699 7.58957 9.93979 7.33689L5.07798 1.99086C4.84777 1.73739 4.52782 1.58363 4.18608 1.56226C3.84433 1.54089 3.50772 1.65357 3.24772 1.87639L0.392474 4.32506C0.16499 4.55337 0.0292124 4.85723 0.0108973 5.179C-0.00883947 5.50795 -0.385153 13.3 5.65692 19.3447C10.9279 24.6144 17.5305 24.9999 19.3489 24.9999C19.6147 24.9999 19.7779 24.9921 19.8213 24.9894C20.143 24.9714 20.4467 24.835 20.6739 24.6065L23.1213 21.75C23.3443 21.4901 23.4572 21.1536 23.4361 20.8119C23.4149 20.4701 23.2614 20.1501 23.0081 19.9197L17.6608 15.0566Z" fill="#226ED8"/>
</svg>
