<svg width="30" height="30" viewBox="0 0 30 30" fill="none" xmlns="http://www.w3.org/2000/svg">
<path d="M15 1.875C7.75195 1.875 1.875 7.75195 1.875 15C1.875 22.248 7.75195 28.125 15 28.125C22.248 28.125 28.125 22.248 28.125 15C28.125 7.75195 22.248 1.875 15 1.875ZM15 25.8984C8.98242 25.8984 4.10156 21.0176 4.10156 15C4.10156 8.98242 8.98242 4.10156 15 4.10156C21.0176 4.10156 25.8984 8.98242 25.8984 15C25.8984 21.0176 21.0176 25.8984 15 25.8984Z" fill="#FDFDFD"/>
<path d="M18.2695 9.27832C17.3906 8.50781 16.2305 8.08594 15 8.08594C13.7695 8.08594 12.6094 8.51074 11.7305 9.27832C10.8164 10.0781 10.3125 11.1533 10.3125 12.3047V12.5273C10.3125 12.6562 10.418 12.7617 10.5469 12.7617H11.9531C12.082 12.7617 12.1875 12.6562 12.1875 12.5273V12.3047C12.1875 11.0127 13.4502 9.96094 15 9.96094C16.5498 9.96094 17.8125 11.0127 17.8125 12.3047C17.8125 13.2158 17.168 14.0508 16.1689 14.4346C15.5479 14.6719 15.0205 15.0879 14.6426 15.6328C14.2588 16.1895 14.0596 16.8574 14.0596 17.5342V18.1641C14.0596 18.293 14.165 18.3984 14.2939 18.3984H15.7002C15.8291 18.3984 15.9346 18.293 15.9346 18.1641V17.499C15.9361 17.2146 16.0233 16.9373 16.1848 16.7031C16.3462 16.469 16.5745 16.289 16.8398 16.1865C18.5684 15.5215 19.6846 13.998 19.6846 12.3047C19.6875 11.1533 19.1836 10.0781 18.2695 9.27832ZM13.8281 21.4453C13.8281 21.7561 13.9516 22.0542 14.1714 22.274C14.3911 22.4937 14.6892 22.6172 15 22.6172C15.3108 22.6172 15.6089 22.4937 15.8286 22.274C16.0484 22.0542 16.1719 21.7561 16.1719 21.4453C16.1719 21.1345 16.0484 20.8364 15.8286 20.6167C15.6089 20.3969 15.3108 20.2734 15 20.2734C14.6892 20.2734 14.3911 20.3969 14.1714 20.6167C13.9516 20.8364 13.8281 21.1345 13.8281 21.4453Z" fill="#FDFDFD"/>
</svg>
