<svg width="32" height="54" viewBox="0 0 32 54" fill="none" xmlns="http://www.w3.org/2000/svg">
<path fill-rule="evenodd" clip-rule="evenodd" d="M0.00113717 38.4392C0.030866 40.3827 0.409306 42.305 1.11845 44.1147C1.57073 45.2329 2.15076 46.295 2.84698 47.2799L3.91556 48.6562C4.61063 49.4274 5.37223 50.1359 6.19155 50.7735L6.7699 51.1935C7.34683 51.5951 7.94805 51.9606 8.57013 52.2879C8.81155 52.4157 9.00566 52.482 9.25332 52.6044C12.1799 54.0357 16.0824 54.3576 19.2128 53.6092C20.2216 53.4006 21.2025 53.0745 22.1354 52.6375L23.0841 52.1881C23.2207 52.1116 23.2476 52.0807 23.3995 52.0056L24.605 51.2638C24.813 51.1246 24.9612 51.0087 25.1567 50.8671L26.4911 49.7548C26.821 49.453 27.1323 49.1312 27.423 48.7914L28.0895 48.0087C30.0813 45.4301 31.4539 42.0297 31.4539 38.7427V10.5823C31.4539 10.4673 31.4194 10.433 31.3046 10.433H20.9682V32.0983C21.5593 32.495 22.4097 33.7339 22.7481 34.4106C23.5726 36.0719 23.7846 37.9709 23.3468 39.7733C23.1673 40.4967 22.888 41.1915 22.5168 41.8379L21.6155 43.0827L20.7566 43.9218C20.6659 43.9983 20.6021 44.0405 20.5015 44.1201C20.4009 44.1997 20.3049 44.2734 20.2182 44.3346C17.9631 45.9269 14.6486 46.2179 12.1867 44.8773L10.7963 43.9705C9.23395 42.6856 8.22876 40.8465 7.99081 38.8377C7.75285 36.8289 8.30055 34.8059 9.51941 33.1915C9.79324 32.8055 10.1172 32.4577 10.4828 32.1572V0H0L0.00113717 38.4392Z" fill="#226ED8"/>
<path fill-rule="evenodd" clip-rule="evenodd" d="M12.2386 37.5902C12.2386 38.8504 12.3125 39.2207 13.066 40.2066C13.3927 40.5902 13.7965 40.9008 14.2511 41.1182L14.832 41.3366C15.4326 41.4981 16.0653 41.4986 16.6662 41.3381C17.2672 41.1776 17.8153 40.8618 18.2555 40.4223C18.6957 39.9829 19.0125 39.4353 19.1741 38.8346C19.3356 38.234 19.3362 37.6013 19.1758 37.0004C19.0154 36.3994 18.6996 35.8512 18.2602 35.411C17.8208 34.9707 17.2732 34.6538 16.6726 34.4922C16.0719 34.3306 15.4393 34.33 14.8383 34.4903C14.2373 34.6507 13.6891 34.9664 13.2488 35.4058C12.6568 35.9863 12.2976 36.7634 12.2389 37.5905L12.2386 37.5902Z" fill="#226ED8"/>
</svg>
